<svg width="64" height="64" viewBox="0 0 64 64" fill="none" xmlns="http://www.w3.org/2000/svg">
<g clip-path="url(#clip0_1155_56632)">
<path d="M31.4786 5.15475C46.3048 5.15478 58.3238 17.1738 58.3237 32.0001C58.3237 46.8263 46.3047 58.8452 31.4786 58.8453C16.6524 58.8453 4.6333 46.8263 4.63324 32.0001C4.63322 17.1738 16.6523 5.1547 31.4786 5.15475Z" fill="#DFB6C8"/>
<path d="M0.984375 31.9825C0.984375 31.5603 1.32098 31.2181 1.7362 31.2181C2.15142 31.2181 2.48803 31.5603 2.48803 31.9825C2.48809 48.2772 15.481 61.4867 31.5086 61.4867C31.9238 61.4867 32.2604 61.8289 32.2604 62.251C32.2603 62.6731 31.9238 63.0154 31.5086 63.0154C14.6506 63.0154 0.984436 49.1215 0.984375 31.9825Z" fill="#82204A"/>
<path d="M63.0151 32.0175C63.0151 32.4397 62.6729 32.7819 62.2508 32.7819C61.8286 32.7819 61.4864 32.4397 61.4864 32.0175C61.4864 15.7228 48.2769 2.51332 31.9822 2.51334C31.5601 2.51334 31.2179 2.17112 31.2179 1.74898C31.2179 1.32688 31.5601 0.984622 31.9822 0.984619C49.1212 0.984599 63.0151 14.8785 63.0151 32.0175Z" fill="#82204A"/>
<path d="M53.6323 31.7394C53.6323 43.8307 43.8304 53.6326 31.7391 53.6326C19.6478 53.6326 9.84591 43.8307 9.84591 31.7394C9.84591 19.6481 19.6478 9.84616 31.7391 9.84616C43.8304 9.84616 53.6323 19.6481 53.6323 31.7394Z" fill="url(#paint0_linear_1155_56632)"/>
<path d="M29.6731 31.7261L24.0077 23.2424C23.6041 22.6381 24.0454 21.8353 24.7812 21.8353H27.7898C28.1038 21.8353 28.3963 21.9917 28.5667 22.2506L32.3738 28.035L36.4136 22.2311C36.586 21.9834 36.8718 21.8353 37.1773 21.8353H39.8001C40.5398 21.8353 40.9804 22.6458 40.5688 23.2496L34.7516 31.7837L40.96 40.7448C41.378 41.348 40.9381 42.1647 40.1953 42.1647H37.2089C36.9022 42.1647 36.6154 42.0154 36.4432 41.766L32.0802 35.4459L27.7755 41.7616C27.6038 42.0135 27.3155 42.1647 27.0068 42.1647H24.3255C23.5869 42.1647 23.1461 41.3564 23.5555 40.7524L29.6731 31.7261Z" fill="white"/>
</g>
<defs>
<linearGradient id="paint0_linear_1155_56632" x1="13.7671" y1="20.3026" x2="69.9706" y2="76.5061" gradientUnits="userSpaceOnUse">
<stop stop-color="#CE0058"/>
<stop offset="1" stop-color="#DFB6C8"/>
</linearGradient>
<clipPath id="clip0_1155_56632">
<rect width="64" height="64" fill="white"/>
</clipPath>
</defs>
</svg>
