<svg width="64" height="64" viewBox="0 0 64 64" fill="none" xmlns="http://www.w3.org/2000/svg">
<path d="M17.9311 23.0872C19.1389 20.468 22.8842 21.9922 24.816 23.0077C31.3772 26.4563 38.2103 32.2608 41.2478 39.1284C41.9132 40.6341 41.9059 42.2661 40.2919 43.0724C38.0781 44.5292 35.3675 46.0329 33.0506 47.4084L20.2651 54.995L12.0487 59.8571C10.4292 60.8235 8.8376 61.7942 7.17848 62.6996C5.30297 63.7231 3.43465 62.0985 4.06235 60.1132C4.48512 58.7761 5.00921 57.4535 5.50404 56.1352L17.9311 23.0872Z" fill="url(#paint0_linear_1155_56654)"/>
<path d="M17.9311 23.0872C19.1389 20.468 22.8842 21.9922 24.816 23.0077C31.3772 26.4563 38.2103 32.2608 41.2478 39.1284C41.9132 40.6341 41.9059 42.2661 40.2919 43.0724C40.1492 43.0849 40.0066 43.0925 39.8639 43.0955C32.9496 43.2463 18.0483 30.2637 17.9311 23.0872Z" fill="#82204A"/>
<path d="M34.6231 7.93867C34.998 7.91774 35.7238 7.98086 35.8727 8.38818C36.9911 11.443 34.5284 22.3107 32.0136 23.8788L31.9136 23.8757C31.4169 23.8567 31.1587 23.778 30.789 23.4127C30.2309 22.8619 30.9442 21.656 31.2753 21.0024C32.7269 18.1418 33.5683 15.2426 33.8078 12.0319C33.8859 10.979 33.8224 9.89086 33.9119 8.84216C33.9515 8.38526 34.2618 8.2039 34.6231 7.93867Z" fill="#82204A"/>
<path d="M49.2367 26.3264C50.6497 26.2116 52.4939 26.314 53.8789 26.6128C54.9566 26.9545 54.5911 28.8881 53.6289 28.79C49.7271 28.3921 46.9791 28.5203 43.2064 30.0317C42.2328 30.4258 41.3404 31.0649 40.3887 31.3681C39.4588 31.6489 38.431 30.2959 39.2609 29.6039C41.759 27.5184 46.144 26.5552 49.2367 26.3264Z" fill="#DFB6C8"/>
<path d="M43.8417 16.2784C43.9813 16.2654 44.1208 16.2576 44.2603 16.255C44.606 16.2526 44.9372 16.398 45.1694 16.6546C45.5547 17.0796 45.4287 17.7629 45.0715 18.1627C42.9097 20.5848 40.6813 22.9512 38.4873 25.3445C37.9354 25.9463 37.2815 26.7171 36.6567 27.2187C35.3852 27.3176 34.6084 26.3821 35.4123 25.3842C37.1034 23.387 38.9215 21.4497 40.7084 19.5352C41.5519 18.6326 42.9004 16.993 43.8417 16.2784Z" fill="#DFB6C8"/>
<path d="M48.7225 7.675C49.4045 7.73219 50.3865 8.66881 51.0269 9.14539C53.9363 8.15815 53.9707 8.17586 52.8804 11.0054C53.3001 11.6691 53.8238 12.1697 54.1206 12.9215C54.0665 13.739 52.3837 13.4858 51.7121 13.4721C49.8283 15.8402 50.0616 16.2281 49.0161 13.0701C48.4142 12.8302 47.098 12.6124 46.7929 12.0694C46.8783 11.4724 48.0289 10.7608 48.5944 10.3112C48.5892 9.60021 48.5246 8.30275 48.7225 7.675Z" fill="url(#paint1_linear_1155_56654)"/>
<path fill-rule="evenodd" clip-rule="evenodd" d="M43.3867 1.02027C44.7613 0.788315 46.0639 1.71049 46.3034 3.08387C46.5419 4.45726 45.6276 5.76595 44.2563 6.01245C42.8744 6.26069 41.554 5.33698 41.3135 3.95337C41.0719 2.56966 42.0029 1.25393 43.3867 1.02027ZM44.9465 3.17904C44.7601 2.55134 44.102 2.19271 43.4741 2.37771C42.8462 2.56295 42.4871 3.22308 42.6724 3.85163C42.8578 4.4802 43.5179 4.8387 44.1469 4.65223C44.7737 4.46606 45.1319 3.80666 44.9465 3.17904Z" fill="#DFB6C8"/>
<path fill-rule="evenodd" clip-rule="evenodd" d="M54.5005 32.1683C55.8751 32.0229 57.109 33.011 57.2683 34.3837C57.4287 35.7563 56.4531 37.0014 55.0827 37.1752C54.1841 37.2893 53.2927 36.9114 52.7491 36.1857C52.2066 35.46 52.0941 34.4982 52.4564 33.6672C52.8188 32.8362 53.5998 32.2637 54.5005 32.1683ZM55.8949 34.3116C55.6981 33.6819 55.0263 33.3329 54.3984 33.5336C53.7758 33.7327 53.4301 34.3974 53.6248 35.0215C53.8205 35.6458 54.4829 35.9954 55.1077 35.804C55.7387 35.611 56.0917 34.9413 55.8949 34.3116Z" fill="#CE0058"/>
<path fill-rule="evenodd" clip-rule="evenodd" d="M56.3771 18.2101C57.2758 18.1047 58.162 18.4917 58.6962 19.2227C59.2293 19.9536 59.3281 20.9155 58.9543 21.74C58.5815 22.5646 57.7922 23.1239 56.8915 23.204C55.5243 23.3255 54.3133 22.3262 54.1727 20.9608C54.0322 19.5953 55.0141 18.3699 56.3771 18.2101ZM57.4705 19.8358C57.1602 19.5409 56.7156 19.4365 56.3074 19.5629C55.6931 19.7528 55.3442 20.3992 55.5212 21.0172C55.6982 21.6353 56.3376 21.998 56.9582 21.8332C57.3716 21.7236 57.6933 21.399 57.7995 20.9846C57.9057 20.5703 57.7798 20.1308 57.4705 19.8358Z" fill="#82204A"/>
<path d="M25.6088 6.22161C26.1672 6.33349 26.9898 6.93581 27.493 7.2626C28.032 7.00165 28.9468 6.3662 29.354 6.95311C29.4206 7.43407 29.1832 8.05869 29.0416 8.54278C29.4414 9.00478 30.2495 9.67023 29.9715 10.244C29.5425 10.5095 28.8469 10.5065 28.2981 10.5702C27.9791 11.0937 27.6893 11.935 27.0668 11.9605C26.6498 11.6534 26.4297 10.9331 26.2204 10.4268C25.6224 10.1971 24.8015 10.2293 24.4781 9.66231C24.5674 9.20229 25.2949 8.67247 25.6778 8.34287C25.633 7.68502 25.4902 6.84143 25.6088 6.22161Z" fill="url(#paint2_linear_1155_56654)"/>
<path d="M58.1504 26.978C59.0042 26.8056 59.8394 27.3513 60.0247 28.2034C60.2101 29.0557 59.678 29.8989 58.8283 30.0975C58.268 30.2286 57.6797 30.0473 57.2902 29.6229C56.9008 29.1986 56.7696 28.5972 56.9477 28.0492C57.1257 27.5013 57.586 27.0919 58.1504 26.978Z" fill="#DFB6C8"/>
<path d="M26.6308 16.1349C27.492 15.9581 28.3337 16.5127 28.5116 17.3741C28.6896 18.2355 28.1363 19.0782 27.2754 19.2573C26.4129 19.4368 25.5686 18.8821 25.3904 18.019C25.2122 17.156 25.7678 16.3119 26.6308 16.1349Z" fill="#DFB6C8"/>
<path d="M45.5121 33.2253C46.3732 33.038 47.2229 33.5873 47.4062 34.4501C47.5895 35.3128 47.0365 36.1603 46.1733 36.3397C45.3153 36.5179 44.4749 35.9691 44.2927 35.1119C44.1105 34.2546 44.6561 33.4114 45.5121 33.2253Z" fill="#CE0058"/>
<path d="M33.8066 1.76925C34.6282 1.48184 35.5279 1.91145 35.8215 2.73149C36.1142 3.55143 35.6914 4.4545 34.874 4.75369C34.0482 5.05589 33.1339 4.62743 32.8382 3.79905C32.5414 2.97078 32.9767 2.05958 33.8066 1.76925Z" fill="#82204A"/>
<path d="M40.0825 10.101C40.8968 9.78331 41.8153 10.1866 42.1329 11.0017C42.4505 11.8169 42.0475 12.7351 41.2322 13.0528C40.4178 13.3703 39.4994 12.967 39.1818 12.1519C38.8642 11.3368 39.2672 10.4187 40.0825 10.101Z" fill="#CE0058"/>
<path d="M47.7477 20.7182C48.5724 20.4538 49.4555 20.9021 49.7293 21.7235C50.0032 22.545 49.5659 23.434 48.7474 23.7174C48.2101 23.9037 47.6134 23.7865 47.1865 23.4105C46.7595 23.0347 46.5669 22.4581 46.6835 21.9009C46.7991 21.3438 47.2062 20.8921 47.7477 20.7182Z" fill="#82204A"/>
<defs>
<linearGradient id="paint0_linear_1155_56654" x1="22.8012" y1="21.6345" x2="22.8012" y2="63.0153" gradientUnits="userSpaceOnUse">
<stop stop-color="#82204A"/>
<stop offset="0.461538" stop-color="#CE0058"/>
<stop offset="1" stop-color="#DFB6C8"/>
</linearGradient>
<linearGradient id="paint1_linear_1155_56654" x1="50.4568" y1="7.675" x2="50.515" y2="20.0936" gradientUnits="userSpaceOnUse">
<stop stop-color="#CE0058"/>
<stop offset="1" stop-color="#82204A"/>
</linearGradient>
<linearGradient id="paint2_linear_1155_56654" x1="27.2533" y1="6.22161" x2="27.2358" y2="18.3225" gradientUnits="userSpaceOnUse">
<stop stop-color="#DFB6C8"/>
<stop offset="1" stop-color="#CE0058"/>
</linearGradient>
</defs>
</svg>
